<svg version="1.0" xmlns="http://www.w3.org/2000/svg" width="320" height="320" viewBox="0 0 240 240"><path d="M110.1 11.1c-8.3 1.1-17.9 4.2-26.6 8.7-8.1 4.2-19.1 14.5-22.4 20.9-1.9 3.9-2.5 4.3-5.9 4.3-4.5 0-13.1 2.4-18.5 5.2-9.4 4.7-17.6 15.2-20.3 25.8-4.5 17.7 5.3 33.4 24.2 38.5.7.2.8 2.1.3 5.9-.4 3-.3 8.6.1 12.3.5 3.7.8 6.8.7 6.9-.1.1-2 1.1-4.2 2.2C29 146.1 24 154 24 163.2c0 12.9 11.6 23.6 21.2 19.5 4.3-1.9 7.4-5.3 9.1-10l1.3-3.8 7.2 8.5c3.9 4.7 10.1 10.9 13.7 13.9l6.5 5.4 5.3-1.8c3-1.1 8.1-1.8 12.1-1.9 6.1 0 6.7-.2 6.1-1.7-2.4-5.9-3.5-11.6-3.5-18.8 0-6.7.4-9 2.6-13.3 4.7-9.6 13.7-15.3 24.9-15.9 8-.5 13.8 1.7 14.3 5.3.4 2.9-2 3.6-6.2 1.9-10.4-4.3-24.9 2.8-28.6 14-.8 2.3-1.1 6.8-.8 11.5.4 7.5 1.4 10.2 6.8 18.6.7 1.2 1 2.9.7 3.9-.6 1.5-1.7 1.6-9.2 1-11.6-1-16.8-.1-21.1 3.7-4.5 4-6.4 7.7-6.4 12.6 0 8.4 6.2 11.6 25.7 13.2 19.9 1.7 46.4-1.7 50.3-6.5.7-.9 1.5-3.8 1.8-6.5.4-4.6.7-5 4.1-6.1 2-.6 5.3-2 7.5-3.1l3.9-2 4.7 2.6c5.5 3 14.8 3.5 20.4 1.2 4.9-2 11.6-8.5 13.7-13.1 2.2-4.8 2.5-14.2.6-18.8-1.8-4.2-8.5-10.1-13.2-11.7-2-.7-6.3-1-9.5-.8l-5.9.4-2.5-7c-4.2-11.3-12.3-24.2-21.1-33.4-16-16.8-41.5-30.4-66.3-35.2-5.7-1.2-6.3-1.5-5.8-3.4.3-1.2.9-3.8 1.2-6l.7-3.8 7 .7c19.5 1.9 59.6-.2 70.4-3.8 5.5-1.8 5.6-4.7.2-9.7-9.5-8.7-27.1-16.4-40-17.6-3.8-.4-6.9-1.1-6.9-1.5 0-.5 3.7-2.7 8.2-5 16.1-8.1 27.3-16.9 26.6-20.8-.5-2.7-7.1-5.1-18.5-6.6-11.8-1.6-17.5-1.7-27.2-.4zM50 65c2.7 2.7 2.5 5.5-.7 8-6.1 4.8-13.8-2.5-8.6-8.2 2.1-2.4 6.8-2.3 9.3.2z"/></svg>