<?xml version="1.0" encoding="UTF-8"?>
<!DOCTYPE svg  PUBLIC '-//W3C//DTD SVG 20010904//EN'  'http://www.w3.org/TR/2001/REC-SVG-20010904/DTD/svg10.dtd'>
<svg width="464pt" height="464pt" version="1.0" viewBox="0 0 464 464" xmlns="http://www.w3.org/2000/svg">
<g transform="translate(0 464) scale(.1 -.1)">
<path d="m2292 4567c-7-8-36-81-65-163l-52-149-164-3c-162-2-191-8-191-38 0-7 61-59 135-115s135-102 135-103-20-66-45-146c-73-235-67-240 127-107l140 96 122-85c156-109 164-113 181-90 11 15 11 26-1 64-7 26-29 97-48 158l-33 111 131 99c90 68 132 106 134 122 2 12 2 23 0 24s-81 4-177 7l-174 6-56 160c-56 160-72 185-99 152z"/>
<path d="m2198 3575c-68-48-118-75-140-77-48-5-106 9-140 34l-30 21-61-69c-107-120-225-239-268-269-23-17-57-44-75-61-39-37-37-67 8-94 72-43 215-30 376 34 47 19 88 34 89 32 2-1-66-88-150-193-293-367-522-612-692-741-103-78-120-107-88-150 45-61 146-92 299-92 106 0 257 30 324 65 17 9 34 15 36 12 2-2-40-71-94-153-287-436-567-732-761-804-73-28-91-45-91-87 0-72 138-165 320-217 327-93 725-28 1047 169l41 25-4-38c-38-361-76-595-114-708-14-41-31-69-57-91-32-27-35-33-24-47 12-14 56-16 367-16 343 0 353 1 359 20 7 23-1 40-20 40-38 0-82 129-118 345-30 175-63 472-55 481 4 3 37-12 75-35 231-137 547-209 801-182 143 15 247 42 348 90 93 44 151 92 171 139 20 48 0 73-91 116-85 39-146 79-217 142-83 73-221 226-315 346-87 112-326 459-320 465 2 2 25-6 52-17 170-73 427-81 551-16 46 23 73 55 73 86 0 29-30 61-123 129-79 58-180 154-302 287-197 216-544 644-509 629 209-89 359-112 446-68 33 16 51 47 43 74-4 10-31 35-60 54-59 37-167 141-292 279l-80 89-30-22c-39-29-99-42-144-32-20 5-84 40-141 80-58 39-107 71-109 70-2 0-52-34-111-74zm238-540c35-23 57-79 49-123-4-21-21-50-40-69-29-29-39-33-85-33s-56 4-86 34-34 40-34 84c0 40 6 57 27 82 14 18 36 36 47 41 29 12 92 4 122-16zm348-569c41-17 74-58 82-102 12-66-56-144-126-144-61 0-130 68-130 128 0 46 31 94 74 113 50 22 57 23 100 5zm-1036-50c83-46 81-176-3-222-76-41-185 19-185 102 0 48 24 95 58 116 32 21 98 23 130 4zm476-477c56-44 70-110 36-166-30-50-62-66-120-61-161 16-152 248 9 248 34 0 56-6 75-21zm521-389c58-54 51-154-14-197-107-72-244 44-186 157 8 15 27 38 42 50 38 30 121 24 158-10zm-1188-365c31-9 71-59 78-99 20-103-101-182-192-126-93 56-74 199 32 229 30 9 40 8 82-4zm1766-59c43-18 70-61 70-111 0-51-16-81-56-105-41-25-93-25-134 0-40 24-56 54-56 105 0 93 88 148 176 111z"/>
</g>
</svg>
